<svg version="1" xmlns="http://www.w3.org/2000/svg" width="682.667" height="682.667" viewBox="0 0 512.000000 512.000000"><path d="M236 .7c-23.2 1.7-51.6 8.4-74.3 17.4-32.8 13.1-60.1 31.2-86.3 57.3-22.4 22.5-36.6 42.3-50 70.1C-.7 199.6-6.8 260.1 8 319c11.1 44.1 33.8 83.8 67 117.1 21 21 38.7 34.2 63.5 47 72.5 37.6 157.7 38.5 230.4 2.3 8-4 18-9.4 22.1-12 32.1-20.4 61.9-50.2 82.4-82.4 6.3-9.8 18.5-34.9 23.1-47.5 4.8-12.8 10.8-36.6 13.1-52 2.2-14.8 2.6-53.1.6-67-6.9-48.3-23.8-88.6-53-126.5-9.6-12.4-34-36.3-47.2-46.2C363.9 17.4 309.8-.5 254 .2c-7.4.1-15.5.3-18 .5zm57.9 183.5c50.9 34.7 93.8 64.2 95.4 65.6 2 1.9 2.7 3.5 2.7 6.2s-.7 4.3-2.7 6.2c-2.2 2-160.2 110.2-184.6 126.3-6.6 4.4-10.7 4.8-14.3 1.4l-2.4-2.2V124.3l2.3-2c2.7-2.6 5.4-3.2 8.6-2.1 1.3.5 44.1 29.3 95 64z"/></svg>